<svg width="24" height="24" viewBox="0 0 24 24" fill="none" xmlns="http://www.w3.org/2000/svg">
<circle cx="12" cy="12" r="12" fill="white"/>
<path d="M20 11.9703V17H16.9992V12.307C16.9992 11.1278 16.5651 10.3235 15.4792 10.3235C14.6501 10.3235 14.1563 10.866 13.9396 11.3902C13.8603 11.5777 13.84 11.8387 13.84 12.1011V17H10.8378C10.8378 17 10.8785 9.05222 10.8378 8.22814H13.84V9.47142L13.8203 9.50005H13.84V9.47142C14.2384 8.875 14.9503 8.02228 16.5447 8.02228C18.5193 8.02228 20 9.27648 20 11.9703V11.9703ZM7.69818 4C6.67198 4 6 4.65436 6 5.51526C6 6.35707 6.65234 7.0312 7.6589 7.0312H7.67854C8.72579 7.0312 9.37602 6.35707 9.37602 5.51526C9.35778 4.65436 8.72649 4 7.69888 4H7.69818ZM6.17817 17H9.17892V8.22814H6.17817V17Z" fill="black"/>
</svg>
