<svg width="24" height="24" viewBox="0 0 24 24" fill="none" xmlns="http://www.w3.org/2000/svg">
<circle cx="12" cy="12" r="12" fill="white"/>
<path d="M9.026 19.1765C15.064 19.1765 18.367 14.1058 18.367 9.71627C18.367 9.57438 18.367 9.43046 18.361 9.28856C19.0041 8.81676 19.5591 8.23263 20 7.56355C19.3993 7.83198 18.7628 8.0089 18.111 8.08855C18.7975 7.67264 19.3117 7.01825 19.558 6.24699C18.913 6.63428 18.207 6.90615 17.471 7.05071C16.9762 6.51661 16.3214 6.16278 15.6081 6.04404C14.8948 5.92529 14.1627 6.04826 13.5253 6.39388C12.888 6.73951 12.3808 7.28851 12.0824 7.95584C11.7841 8.62318 11.7112 9.3716 11.875 10.0852C10.5697 10.0189 9.29282 9.67519 8.12704 9.07648C6.96127 8.47776 5.93268 7.63738 5.108 6.60983C4.68934 7.34269 4.56157 8.20957 4.75065 9.03444C4.93972 9.85931 5.43145 10.5803 6.126 11.0511C5.60554 11.0332 5.09652 10.8915 4.64 10.6376V10.6832C4.6409 11.4509 4.90331 12.1948 5.38287 12.789C5.86244 13.3833 6.52975 13.7915 7.272 13.9447C6.99026 14.0233 6.69923 14.0626 6.407 14.0612C6.20098 14.0619 5.99538 14.0425 5.793 14.0035C6.00279 14.6643 6.41127 15.2422 6.96125 15.656C7.51122 16.0698 8.17513 16.2989 8.86 16.3112C7.69656 17.2374 6.2594 17.7397 4.78 17.7373C4.51932 17.7384 4.25882 17.7232 4 17.6917C5.50151 18.6619 7.2453 19.177 9.026 19.1765Z" fill="black"/>
</svg>
