<svg width="151" height="58" viewBox="0 0 151 58" fill="none" xmlns="http://www.w3.org/2000/svg">
<path d="M69.3972 50.973H73.3526V36.053H69.3972V50.973ZM69.3972 33.7263H73.3526V30.1781H69.3972V33.7263Z" fill="#2F3A3D"/>
<path d="M75.9013 55.8591H79.8567V49.2862H79.915C80.7583 50.5658 82.1253 51.4093 84.2193 51.4093C88.0584 51.4093 90.6759 48.3555 90.6759 43.5276C90.6759 38.8741 88.1456 35.6458 84.1902 35.6458C82.1544 35.6458 80.7583 36.6056 79.7985 37.9143H79.7113V36.053H75.9013V55.8591ZM83.376 48.1227C81.0201 48.1227 79.7695 46.3487 79.7695 43.6439C79.7695 40.9682 80.7583 38.845 83.2304 38.845C85.6735 38.845 86.6623 40.8227 86.6623 43.6439C86.6623 46.465 85.3827 48.1227 83.376 48.1227Z" fill="#2F3A3D"/>
<path d="M98.5661 51.4093C102.289 51.4093 104.848 49.606 104.848 46.6104C104.848 43.1204 102.085 42.4224 99.5841 41.8989C97.4608 41.4626 95.4832 41.3462 95.4832 40.0666C95.4832 38.9905 96.5011 38.4087 98.0426 38.4087C99.7294 38.4087 100.747 38.9905 100.922 40.5901H104.499C104.208 37.5945 102.027 35.6458 98.1008 35.6458C94.698 35.6458 92.0222 37.1873 92.0222 40.4155C92.0222 43.6729 94.6398 44.4001 97.3155 44.9236C99.3513 45.3307 101.242 45.4762 101.242 46.9013C101.242 47.9483 100.253 48.6172 98.5078 48.6172C96.7338 48.6172 95.5122 47.8611 95.2505 46.1451H91.5859C91.8187 49.3153 94.2326 51.4093 98.5661 51.4093Z" fill="#2F3A3D"/>
<path d="M119.866 50.973V36.053H115.91V44.6618C115.91 46.6395 114.776 48.0355 112.915 48.0355C111.228 48.0355 110.442 47.0757 110.442 45.3306V36.053H106.516V45.9997C106.516 49.257 108.378 51.3802 111.693 51.3802C113.787 51.3802 114.95 50.5949 115.968 49.2279H116.056V50.973H119.866Z" fill="#2F3A3D"/>
<path d="M122.424 50.973H126.38V42.306C126.38 40.3283 127.456 39.0487 129.055 39.0487C130.509 39.0487 131.353 39.9211 131.353 41.608V50.973H135.308V42.306C135.308 40.3283 136.326 39.0487 137.984 39.0487C139.438 39.0487 140.282 39.9211 140.282 41.608V50.973H144.237V40.9391C144.237 37.6817 142.463 35.6458 139.322 35.6458C137.431 35.6458 135.861 36.6347 134.843 38.2633H134.785C134.058 36.6928 132.545 35.6458 130.655 35.6458C128.59 35.6458 127.136 36.6928 126.321 38.0598H126.234V36.053H122.424V50.973Z" fill="#2F3A3D"/>
<path d="M69.4554 25.4184H73.4108V4.62353H69.4554V25.4184Z" fill="#2F3A3D"/>
<path d="M83.0823 25.8547C87.7067 25.8547 90.8768 22.4228 90.8768 17.973C90.8768 13.5232 87.7067 10.0913 83.0823 10.0913C78.458 10.0913 75.2878 13.5232 75.2878 17.973C75.2878 22.4228 78.458 25.8547 83.0823 25.8547ZM83.0823 22.83C80.6392 22.83 79.3015 20.8814 79.3015 17.973C79.3015 15.0646 80.6392 13.0869 83.0823 13.0869C85.4962 13.0869 86.8632 15.0646 86.8632 17.973C86.8632 20.8814 85.4962 22.83 83.0823 22.83Z" fill="#2F3A3D"/>
<path d="M99.2883 30.5082C101.499 30.5082 103.418 29.9847 104.669 28.8212C105.774 27.8033 106.443 26.3782 106.443 24.2842V10.4985H102.633V12.069H102.575C101.673 10.8184 100.306 10.0913 98.4449 10.0913C94.6641 10.0913 91.9883 12.9415 91.9883 17.3913C91.9883 21.8993 95.2457 24.5168 98.5613 24.5168C100.452 24.5168 101.586 23.7607 102.459 22.7719H102.546V24.4005C102.546 26.4363 101.47 27.5124 99.2302 27.5124C97.3979 27.5124 96.5546 26.7854 96.2346 25.8547H92.3083C92.7155 28.7631 95.2167 30.5082 99.2883 30.5082ZM99.2302 21.3467C97.1944 21.3467 95.8564 19.8635 95.8564 17.3332C95.8564 14.832 97.1943 13.2614 99.2011 13.2614C101.586 13.2614 102.749 15.1227 102.749 17.3041C102.749 19.5144 101.731 21.3467 99.2302 21.3467Z" fill="#2F3A3D"/>
<path d="M116.057 25.8547C120.682 25.8547 123.852 22.4228 123.852 17.973C123.852 13.5232 120.682 10.0913 116.057 10.0913C111.433 10.0913 108.263 13.5232 108.263 17.973C108.263 22.4228 111.433 25.8547 116.057 25.8547ZM116.057 22.83C113.614 22.83 112.276 20.8814 112.276 17.973C112.276 15.0646 113.614 13.0869 116.057 13.0869C118.471 13.0869 119.838 15.0646 119.838 17.973C119.838 20.8814 118.471 22.83 116.057 22.83Z" fill="#2F3A3D"/>
<path d="M127.319 19.7181H144.42V16.3153H127.319V19.7181Z" fill="#2F3A3D"/>
<path d="M145.674 33.5186C145.674 32.8493 146.217 32.3067 146.887 32.3067H149.309C149.979 32.3067 150.522 32.8493 150.522 33.5186C150.522 34.1877 149.979 34.7303 149.309 34.7303H146.887C146.217 34.7303 145.674 34.1877 145.674 33.5186Z" fill="#2F3A3D"/>
<path fill-rule="evenodd" clip-rule="evenodd" d="M29.4522 0C45.4301 0 58.3828 12.9527 58.3828 28.9306C58.3828 44.9086 45.4301 57.8612 29.4522 57.8612C13.4743 57.8612 0.521606 44.9086 0.521606 28.9306C0.521606 12.9527 13.4743 0 29.4522 0ZM28.4065 2.16486C25.1061 2.62934 21.9634 5.2814 19.5238 9.71692C18.8162 11.0035 18.1777 12.4249 17.6212 13.9597C20.9384 13.1261 24.5823 12.6346 28.4065 12.5586V2.16486ZM15.1761 14.6545C15.868 12.483 16.7145 10.485 17.6913 8.70905C18.9006 6.51024 20.3359 4.61147 21.953 3.1531C13.1596 5.7069 6.22849 12.638 3.67472 21.4314C5.13306 19.8143 7.03185 18.379 9.23067 17.1697C11.0066 16.1929 13.0045 15.3464 15.1761 14.6545ZM14.4812 17.0996C13.6477 20.4168 13.1562 24.0607 13.0802 27.8849H2.68646C3.15096 24.5844 5.80301 21.4416 10.2385 19.0022C11.5251 18.2946 12.9465 17.6561 14.4812 17.0996ZM15.1721 27.8849C15.2584 23.7115 15.8592 19.7935 16.8532 16.3316C20.3151 15.3376 24.2333 14.7367 28.4065 14.6503V19.1677C26.8496 23.1535 23.6742 26.3286 19.6883 27.8849H15.1721ZM13.0802 29.9763H2.68646C3.15096 33.2769 5.80301 36.4194 10.2385 38.859C11.5251 39.5667 12.9465 40.2052 14.4812 40.7616C13.6477 37.4445 13.1562 33.8005 13.0802 29.9763ZM16.8532 41.5296C15.8592 38.0678 15.2584 34.1497 15.1721 29.9763H19.6883C23.6742 31.5326 26.8498 34.7078 28.4065 38.6935V43.2109C24.2333 43.1245 20.3151 42.5237 16.8532 41.5296ZM15.1761 43.2067C13.0045 42.5148 11.0066 41.6683 9.23067 40.6915C7.03185 39.4822 5.13306 38.0469 3.67472 36.4299C6.22849 45.2232 13.1596 52.1544 21.953 54.7081C20.3359 53.2497 18.9006 51.351 17.6913 49.1521C16.7145 47.3762 15.868 45.3782 15.1761 43.2067ZM28.4065 55.6963C25.1061 55.2319 21.9634 52.5798 19.5238 48.1443C18.8162 46.8578 18.1777 45.4362 17.6212 43.9016C20.9384 44.7351 24.5823 45.2266 28.4065 45.3026V55.6963ZM36.9515 54.7081C38.5685 53.2497 40.0038 51.351 41.2132 49.1521C42.1899 47.3762 43.0364 45.3782 43.7283 43.2067C45.8998 42.5148 47.8978 41.6683 49.6738 40.6915C51.8726 39.4822 53.7714 38.0469 55.2297 36.4299C52.676 45.2232 45.7448 52.1544 36.9515 54.7081ZM41.2832 43.9016C40.7268 45.4362 40.0883 46.8578 39.3806 48.1443C36.9412 52.5798 33.7985 55.2319 30.4979 55.6963V45.3026C34.3221 45.2266 37.9661 44.7351 41.2832 43.9016ZM44.4232 40.7616C45.9578 40.2052 47.3793 39.5667 48.6659 38.859C53.1014 36.4194 55.7535 33.2769 56.2179 29.9763H45.8242C45.7482 33.8005 45.2567 37.4445 44.4232 40.7616ZM43.7325 29.9763C43.6461 34.1497 43.0453 38.0678 42.0512 41.5296C38.5894 42.5237 34.6713 43.1245 30.4979 43.2109V38.6969C32.0542 34.7096 35.2304 31.5331 39.2174 29.9763H43.7325ZM45.8242 27.8849H56.2179C55.7535 24.5844 53.1014 21.4416 48.6659 19.0022C47.3793 18.2946 45.9578 17.6561 44.4232 17.0996C45.2567 20.4168 45.7482 24.0607 45.8242 27.8849ZM42.0512 16.3316C43.0453 19.7935 43.6461 23.7115 43.7325 27.8849H39.2174C35.2304 26.3282 32.0542 23.1516 30.4979 19.1644V14.6503C34.6713 14.7367 38.5894 15.3376 42.0512 16.3316ZM43.7283 14.6545C45.8998 15.3464 47.8978 16.1929 49.6738 17.1697C51.8726 18.379 53.7714 19.8143 55.2297 21.4314C52.676 12.638 45.7448 5.7069 36.9515 3.1531C38.5685 4.61147 40.0038 6.51024 41.2132 8.70905C42.1899 10.485 43.0364 12.483 43.7283 14.6545ZM30.4979 2.16486C33.7985 2.62934 36.9412 5.2814 39.3806 9.71692C40.0883 11.0035 40.7268 12.4249 41.2832 13.9597C37.9661 13.1261 34.3221 12.6346 30.4979 12.5586V2.16486Z" fill="#2F3A3D"/>
</svg>
